<svg xmlns="http://www.w3.org/2000/svg" xmlns:xlink="http://www.w3.org/1999/xlink" width="62" height="62" viewBox="0 0 62 62">
  <defs>
    <clipPath id="clip-path">
      <rect id="Rectangle_707" data-name="Rectangle 707" width="62" height="62" transform="translate(0 0)" fill="#ff123f"/>
    </clipPath>
  </defs>
  <g id="Group_648" data-name="Group 648" transform="translate(0 -0.031)">
    <g id="Group_19" data-name="Group 19" transform="translate(0 0.031)" clip-path="url(#clip-path)">
      <path id="Path_215" data-name="Path 215" d="M0,31.089A31.088,31.088,0,1,1,31.088,62.176,31.088,31.088,0,0,1,0,31.089" transform="translate(0 -0.016)"/>
      <path id="Path_216" data-name="Path 216" d="M39.265,156.708c-2.826,0-4.739,1.558-4.739,4.806v6.475H36.64v-6.475c0-2.025,1.046-2.848,2.625-2.848a2.331,2.331,0,0,1,2.373,1.4c.513-.512,1.056-1,1.594-1.486a4.434,4.434,0,0,0-3.967-1.868" transform="translate(-28.999 -131.636)" fill="#fff"/>
      <path id="Path_217" data-name="Path 217" d="M94.907,156.708a5.66,5.66,0,0,0-5.941,5.874,5.474,5.474,0,0,0,5.585,5.7,4.382,4.382,0,0,0,4.272-2.692v2.4h1.936v-5.407a5.577,5.577,0,0,0-5.852-5.874m-.022,9.612a3.827,3.827,0,1,1,3.783-3.827,3.633,3.633,0,0,1-3.783,3.827" transform="translate(-74.723 -131.636)" fill="#fff"/>
      <path id="Path_218" data-name="Path 218" d="M173.471,161.625c0-3.36,1.958-4.917,4.539-4.917a4.19,4.19,0,0,1,3.872,2.181,4.167,4.167,0,0,1,3.871-2.181c2.581,0,4.539,1.558,4.539,4.917v6.364h-2.114v-6.364c0-2.047-1.09-2.959-2.626-2.959-1.491,0-2.6.957-2.6,2.959v6.364h-2.114v-6.364c0-2-1.135-2.959-2.626-2.959-1.535,0-2.626.912-2.626,2.959v6.364h-2.114Z" transform="translate(-145.7 -131.636)" fill="#fff"/>
      <path id="Path_219" data-name="Path 219" d="M289.388,162.582a5.565,5.565,0,0,1,5.852-5.874,5.643,5.643,0,0,1,5.941,5.852,5.48,5.48,0,0,1-5.585,5.718,4.53,4.53,0,0,1-4.094-2.225v4.888h-2.114Zm9.657-.089a3.772,3.772,0,1,0-3.783,3.827,3.633,3.633,0,0,0,3.783-3.827" transform="translate(-243.059 -131.636)" fill="#fff"/>
    </g>
  </g>
</svg>
